<svg width="154.000000" height="31.000000" viewBox="0 0 154 31" fill="none" xmlns="http://www.w3.org/2000/svg" xmlns:xlink="http://www.w3.org/1999/xlink">
	<desc>
			Created with Pixso.
	</desc>
	<defs/>
	<path id="Medisite" d="M57.01 11.36Q54.85 14.25 54.85 19.27Q54.85 24.6 57.05 27.5Q58.06 28.81 59.38 29.53Q60.97 30.39 63.03 30.39Q64.32 30.39 65.43 29.93Q67 29.29 68.19 27.73L68.52 30L74.44 30L74.44 0L67.83 0L67.83 10.7Q66.75 9.45 65.39 8.91Q64.32 8.47 63.07 8.47Q60.77 8.47 59.08 9.48Q57.9 10.18 57.01 11.36ZM78.44 2.01Q78.13 2.63 78.13 3.41Q78.13 4.19 78.44 4.81Q78.69 5.32 79.14 5.72Q79.31 5.86 79.49 5.99Q80.42 6.62 81.78 6.62Q83.14 6.62 84.07 5.99Q84.25 5.86 84.42 5.72Q84.87 5.32 85.12 4.81Q85.43 4.19 85.43 3.41Q85.43 2.63 85.12 2.01Q84.87 1.51 84.42 1.11Q84.25 0.96 84.07 0.84Q83.14 0.21 81.78 0.21Q80.42 0.21 79.49 0.84Q79.31 0.96 79.14 1.11Q78.69 1.51 78.44 2.01ZM14.5 21.34L8.15 1.56L-0.86 1.56L-0.86 30L6 30L6 23.35L5.33 9.74L12.23 30L16.76 30L23.64 9.76L22.97 23.35L22.97 30L29.85 30L29.85 1.56L20.82 1.56L14.5 21.34ZM37.8 28.71Q40.42 30.39 44.12 30.39Q46.17 30.39 48 29.76Q48.5 29.59 48.98 29.38Q51.23 28.37 52.46 26.67L49.46 23.12Q48.83 23.9 48.02 24.41Q46.58 25.31 44.57 25.31Q42.92 25.31 41.8 24.53Q41.64 24.42 41.49 24.29Q41.28 24.11 41.09 23.91Q40.23 22.96 39.94 21.5L53.03 21.5L53.03 18.94Q53.03 14.27 50.73 11.55Q50.59 11.39 50.45 11.24Q49.8 10.54 49.04 10.02Q46.75 8.47 43.42 8.47Q40.26 8.47 37.95 9.83Q37 10.39 36.24 11.13Q35.15 12.21 34.45 13.67Q33.25 16.15 33.25 19.39L33.25 19.94Q33.25 23.06 34.6 25.39Q35.26 26.53 36.25 27.49Q36.97 28.18 37.8 28.71ZM78.52 30L85.12 30L85.12 8.86L78.52 8.86L78.52 30ZM41.7 13.98Q42.41 13.55 43.38 13.55Q44.76 13.55 45.58 14.23Q45.69 14.32 45.78 14.42Q45.86 14.5 45.93 14.59Q46.62 15.43 46.58 16.87L46.58 17.38L39.94 17.38Q40.31 14.84 41.7 13.98ZM63.26 24.94Q61.43 23.88 61.43 19.68L61.45 18.47Q61.63 14.86 63.33 13.9Q63.94 13.55 64.75 13.55Q65.94 13.55 66.75 14.11Q67.43 14.57 67.83 15.42L67.83 23.47Q67.42 24.29 66.75 24.74Q65.92 25.31 64.71 25.31Q63.88 25.31 63.26 24.94Z" fill="#C7F2FF" fill-opacity="1.000000" fill-rule="evenodd"/>
	<path id="Medisite" d="M109.92 2.01Q109.61 2.63 109.61 3.41Q109.61 4.19 109.92 4.81Q110.18 5.32 110.63 5.72Q110.79 5.86 110.98 5.99Q111.91 6.62 113.27 6.62Q114.62 6.62 115.55 5.99Q115.74 5.86 115.9 5.72Q116.35 5.32 116.61 4.81Q116.92 4.19 116.92 3.41Q116.92 2.63 116.61 2.01Q116.35 1.51 115.9 1.11Q115.74 0.96 115.55 0.84Q114.62 0.21 113.27 0.21Q111.91 0.21 110.98 0.84Q110.79 0.96 110.63 1.11Q110.18 1.51 109.92 2.01ZM128.32 8.86L128.32 3.61L121.74 3.61L121.74 8.86L119.05 8.86L119.05 13.43L121.74 13.43L121.74 23.92Q121.74 27.18 123.36 28.78Q124.98 30.39 128.38 30.39Q130.07 30.39 131.65 29.95Q131.87 29.89 132.09 29.82L132.09 25.11Q131.43 25.23 130.45 25.23Q129.18 25.23 128.75 24.76Q128.32 24.29 128.32 23.1L128.32 13.43L131.8 13.43L131.8 8.86L128.32 8.86ZM100.15 23.56Q100.24 23.79 100.24 24.06Q100.24 24.51 100.06 24.88Q99.89 25.22 99.56 25.48Q98.89 26.03 97.54 26.03Q96.08 26.03 95.14 25.36Q94.94 25.21 94.78 25.03Q94.19 24.37 94.16 23.22L88.01 23.22Q88.01 23.63 88.07 24.04Q88.28 25.45 89.2 26.75Q89.26 26.83 89.32 26.91Q90.49 28.48 92.52 29.41Q94.65 30.39 97.37 30.39Q101.45 30.39 104.02 28.57Q105.56 27.48 106.17 26.01Q106.59 25.02 106.59 23.86Q106.59 22.28 105.92 21.06Q104.8 19.01 101.82 17.98Q100.39 17.5 98.51 17.14Q96.62 16.79 95.76 16.25Q95.2 15.89 95.01 15.38Q94.91 15.12 94.91 14.82Q94.91 14.46 95.03 14.14Q95.2 13.72 95.61 13.38Q95.76 13.26 95.94 13.16Q96.54 12.81 97.35 12.81Q98.75 12.81 99.42 13.51Q100.02 14.14 100.02 15.35L106.62 15.35Q106.62 13.9 106.07 12.72Q105.44 11.38 104.09 10.37Q101.55 8.47 97.37 8.47Q93.48 8.47 91.08 10.36Q89.73 11.42 89.13 12.8Q88.67 13.88 88.67 15.15Q88.67 16.34 89.11 17.33Q89.28 17.71 89.51 18.06Q90.35 19.33 91.96 20.22Q93.56 21.11 96.02 21.66Q98.48 22.2 99.36 22.71Q99.96 23.06 100.15 23.56ZM138.28 28.71Q140.91 30.39 144.61 30.39Q146.66 30.39 148.49 29.76Q148.99 29.59 149.47 29.38Q151.72 28.37 152.95 26.67L149.94 23.12Q149.32 23.9 148.51 24.41Q147.07 25.31 145.06 25.31Q143.41 25.31 142.29 24.53Q142.13 24.42 141.98 24.29Q141.77 24.11 141.58 23.91Q140.72 22.96 140.43 21.5L153.52 21.5L153.52 18.94Q153.52 14.27 151.22 11.55Q151.08 11.39 150.94 11.24Q150.29 10.54 149.53 10.02Q147.24 8.47 143.91 8.47Q140.75 8.47 138.44 9.83Q137.49 10.39 136.73 11.13Q135.64 12.21 134.93 13.67Q133.73 16.15 133.73 19.39L133.73 19.94Q133.73 23.06 135.09 25.39Q135.75 26.53 136.74 27.49Q137.46 28.18 138.28 28.71ZM110 30L116.6 30L116.6 8.86L110 8.86L110 30ZM142.19 13.98Q142.9 13.55 143.87 13.55Q145.25 13.55 146.07 14.23Q146.17 14.32 146.27 14.42Q146.35 14.5 146.42 14.59Q147.11 15.43 147.07 16.87L147.07 17.38L140.43 17.38Q140.8 14.84 142.19 13.98Z" fill="#FFFFFF" fill-opacity="1.000000" fill-rule="evenodd"/>
</svg>
