<svg width="76.000000" height="76.000000" viewBox="0 0 76 76" fill="none" xmlns="http://www.w3.org/2000/svg" xmlns:xlink="http://www.w3.org/1999/xlink">
	<desc>
			Created with Pixso.
	</desc>
	<defs>
		<filter id="filter_1_52_dd" x="0.000000" y="0.000000" width="76.000000" height="76.000000" filterUnits="userSpaceOnUse" color-interpolation-filters="sRGB">
			<feFlood flood-opacity="0" result="BackgroundImageFix"/>
			<feColorMatrix in="SourceAlpha" type="matrix" values="0 0 0 0 0 0 0 0 0 0 0 0 0 0 0 0 0 0 127 0" result="hardAlpha"/>
			<feOffset dx="0" dy="0"/>
			<feGaussianBlur stdDeviation="1.33333"/>
			<feComposite in2="hardAlpha" operator="out" k2="-1" k3="1"/>
			<feColorMatrix type="matrix" values="0 0 0 0 0 0 0 0 0 0 0 0 0 0 0 0 0 0 0 0"/>
			<feBlend mode="normal" in2="BackgroundImageFix" result="effect_dropShadow_1"/>
			<feBlend mode="normal" in="SourceGraphic" in2="effect_dropShadow_1" result="shape"/>
		</filter>
		<clipPath id="clip3_97">
			<rect id="Emergency Care 1" width="42.000000" height="42.000000" transform="translate(18.000000 17.000000)" fill="white" fill-opacity="0"/>
		</clipPath>
	</defs>
	<g filter="url(#filter_1_52_dd)">
		<circle id="Ellipse 3" cx="38.000000" cy="38.000000" r="34.000000" fill="#F3FCFF" fill-opacity="1.000000"/>
	</g>
	<rect id="Emergency Care 1" width="42.000000" height="42.000000" transform="translate(18.000000 17.000000)" fill="#FFFFFF" fill-opacity="0"/>
	<g clip-path="url(#clip3_97)">
		<path id="Vector" d="M43.88 22.71C44.22 22.71 44.49 22.44 44.49 22.1L44.49 20.24C44.49 19.9 44.22 19.63 43.88 19.63C43.54 19.63 43.26 19.9 43.26 20.24L43.26 22.1C43.26 22.44 43.54 22.71 43.88 22.71ZM40.85 22.83C41.02 23.13 41.4 23.23 41.69 23.06C41.98 22.9 42.09 22.52 41.92 22.22L41.14 20.84C40.97 20.54 40.6 20.44 40.3 20.61C40.01 20.77 39.9 21.15 40.07 21.45L40.85 22.83ZM46.07 23.06C46.36 23.23 46.73 23.13 46.9 22.83L47.68 21.45C47.85 21.15 47.75 20.77 47.45 20.61C47.15 20.44 46.78 20.54 46.61 20.84L45.83 22.22C45.66 22.52 45.77 22.9 46.07 23.06ZM57.89 39.96L52.9 38.3C52.62 38.21 52.39 37.99 52.28 37.72L49.5 30.95C49.03 29.8 47.91 29.05 46.66 29.05L46.62 29.05L46.62 27.94C46.62 26.42 45.39 25.19 43.88 25.19C42.36 25.19 41.13 26.42 41.13 27.94L41.13 29.05L36.95 29.05C36.95 29.05 36.95 29.05 36.94 29.05C36.94 29.05 36.94 29.05 36.94 29.05L21.07 29.05C19.37 29.05 18 30.43 18 32.12L18 36.18C18 36.52 18.27 36.8 18.61 36.8C18.95 36.8 19.23 36.52 19.23 36.18L19.23 32.12C19.23 31.11 20.05 30.28 21.07 30.28L36.33 30.28L36.33 43.57L19.23 43.57L19.23 39.06C19.23 38.72 18.95 38.44 18.61 38.44C18.27 38.44 18 38.72 18 39.06L18 48.74C18 50.43 19.37 51.81 21.07 51.81L22.65 51.81C22.95 54.37 25.14 56.36 27.78 56.36C30.42 56.36 32.6 54.37 32.91 51.81L44.12 51.81C44.42 54.37 46.61 56.36 49.25 56.36C51.89 56.36 54.07 54.37 54.38 51.81L56.92 51.81C58.62 51.81 60 50.43 60 48.74L60 42.88C60 41.55 59.15 40.38 57.89 39.96ZM27.78 55.13C25.61 55.13 23.84 53.37 23.84 51.2C23.84 49.03 25.61 47.26 27.78 47.26C29.95 47.26 31.71 49.03 31.71 51.2C31.71 53.37 29.95 55.13 27.78 55.13ZM36.33 50.58L32.91 50.58C32.6 48.02 30.42 46.03 27.78 46.03C25.14 46.03 22.95 48.02 22.65 50.58L21.07 50.58C20.05 50.58 19.23 49.75 19.23 48.74L19.23 44.8L36.33 44.8L36.33 50.58ZM42.36 27.94C42.36 27.1 43.04 26.42 43.88 26.42C44.71 26.42 45.39 27.1 45.39 27.94L45.39 29.05L42.36 29.05L42.36 27.94ZM49.25 55.13C47.08 55.13 45.31 53.37 45.31 51.2C45.31 49.03 47.08 47.26 49.25 47.26C51.42 47.26 53.19 49.03 53.19 51.2C53.19 53.37 51.42 55.13 49.25 55.13ZM58.76 43.57L49.38 43.57C49.04 43.57 48.77 43.84 48.77 44.18C48.77 44.52 49.04 44.8 49.38 44.8L58.76 44.8L58.76 48.74C58.76 49.75 57.94 50.58 56.92 50.58L54.38 50.58C54.07 48.02 51.89 46.03 49.25 46.03C46.61 46.03 44.42 48.02 44.12 50.58L37.56 50.58L37.56 44.8L46.51 44.8C46.85 44.8 47.12 44.52 47.12 44.18C47.12 43.84 46.85 43.57 46.51 43.57L37.56 43.57L37.56 30.28L46.66 30.28C47.41 30.28 48.08 30.73 48.36 31.42L51.14 38.18C51.39 38.79 51.89 39.26 52.52 39.47L57.5 41.13C58.26 41.38 58.76 42.08 58.76 42.88L58.76 43.57ZM47.22 32.15C47.06 31.76 46.69 31.51 46.26 31.51L39.82 31.51C39.25 31.51 38.79 31.97 38.79 32.53L38.79 38.24C38.79 38.8 39.25 39.26 39.82 39.26L48.56 39.26C49.27 39.27 49.78 38.51 49.51 37.85L47.22 32.15ZM40.02 38.03L40.02 32.74L46.13 32.74L48.26 38.03L40.02 38.03ZM49.25 49.35C48.23 49.35 47.4 50.18 47.4 51.2C47.4 52.21 48.23 53.04 49.25 53.04C50.27 53.04 51.09 52.21 51.09 51.2C51.09 50.18 50.27 49.35 49.25 49.35ZM49.25 51.81C48.91 51.81 48.63 51.54 48.63 51.2C48.63 50.86 48.91 50.58 49.25 50.58C49.59 50.58 49.86 50.86 49.86 51.2C49.86 51.54 49.59 51.81 49.25 51.81ZM28.52 31.51L27.04 31.51C26.43 31.51 25.93 32.01 25.93 32.62L25.93 35.08L23.47 35.08C22.86 35.08 22.36 35.57 22.36 36.18L22.36 37.66C22.36 38.27 22.86 38.77 23.47 38.77L25.93 38.77L25.93 41.23C25.93 41.84 26.43 42.34 27.04 42.34L28.52 42.34C29.13 42.34 29.62 41.84 29.62 41.23L29.62 38.77L32.08 38.77C32.69 38.77 33.19 38.27 33.19 37.66L33.19 36.18C33.19 35.57 32.69 35.08 32.08 35.08L29.62 35.08L29.62 32.62C29.62 32.01 29.13 31.51 28.52 31.51ZM31.96 36.31L31.96 37.54L29.25 37.54C28.78 37.54 28.39 37.92 28.39 38.4L28.39 41.11L27.16 41.11L27.16 38.4C27.16 37.92 26.78 37.54 26.3 37.54L23.59 37.54L23.59 36.31L26.3 36.31C26.78 36.31 27.16 35.92 27.16 35.45L27.16 32.74L28.39 32.74L28.39 35.45C28.39 35.92 28.78 36.31 29.25 36.31L31.96 36.31ZM27.78 49.35C26.76 49.35 25.93 50.18 25.93 51.2C25.93 52.21 26.76 53.04 27.78 53.04C28.79 53.04 29.62 52.21 29.62 51.2C29.62 50.18 28.79 49.35 27.78 49.35ZM27.78 51.81C27.44 51.81 27.16 51.54 27.16 51.2C27.16 50.86 27.44 50.58 27.78 50.58C28.12 50.58 28.39 50.86 28.39 51.2C28.39 51.54 28.12 51.81 27.78 51.81Z" fill="#67D7C1" fill-opacity="1.000000" fill-rule="nonzero"/>
	</g>
</svg>
