<svg width="68.000000" height="68.000000" viewBox="0 0 68 68" fill="none" xmlns="http://www.w3.org/2000/svg" xmlns:xlink="http://www.w3.org/1999/xlink">
	<desc>
			Created with Pixso.
	</desc>
	<defs>
		<clipPath id="clip3_82">
			<rect id="Qualified Doctor 1" width="40.000000" height="40.000000" transform="translate(15.000000 14.000000)" fill="white" fill-opacity="0"/>
		</clipPath>
	</defs>
	<rect id="фрейм 3" width="68.000000" height="68.000000" fill="#FFFFFF" fill-opacity="0"/>
	<circle id="Ellipse 2" cx="34.000000" cy="34.000000" r="34.000000" fill="#FFFFFF" fill-opacity="1.000000"/>
	<rect id="Qualified Doctor 1" width="40.000000" height="40.000000" transform="translate(15.000000 14.000000)" fill="#FFFFFF" fill-opacity="0"/>
	<g clip-path="url(#clip3_82)">
		<path id="Vector" d="M28.62 28.83C28.55 28.83 28.48 28.82 28.41 28.79C28.34 28.76 28.28 28.72 28.23 28.67C27.69 28.1 25.93 26.09 25.85 23.83C25.84 23.69 25.89 23.56 25.98 23.46C26.04 23.38 26.08 23.29 26.09 23.18C26.09 23.16 26.04 23.12 26.02 23.1C25.95 23.05 25.89 22.98 25.85 22.9C25.81 22.82 25.79 22.73 25.79 22.64C25.81 22.23 25.98 21.85 26.27 21.56C26.21 21.48 26.15 21.4 26.09 21.32C26.01 21.24 25.96 21.13 25.94 21.01C25.93 20.89 25.96 20.77 26.02 20.67L26.2 20.38C26.27 19.89 26.57 18.22 27.77 17.41C28.08 17.2 28.44 17.06 28.81 16.99C29.18 16.92 29.56 16.93 29.93 17.01C30.22 16.33 30.7 15.75 31.31 15.34C32.44 14.59 33.95 14.39 35.81 14.76C40.57 15.71 41.69 17.44 42.29 18.57C42.71 18.74 43.05 19.05 43.26 19.45C43.41 19.76 43.45 20.11 43.38 20.45C43.75 20.83 44.01 21.31 44.12 21.83C44.32 22.67 44.21 26.55 41.7 28.55C41.62 28.62 41.51 28.66 41.4 28.67C41.3 28.68 41.19 28.65 41.09 28.6C41 28.54 40.92 28.46 40.88 28.37C40.83 28.27 40.81 28.16 40.83 28.05C40.86 27.84 40.89 27.63 40.91 27.42C40.94 27 40.9 26.58 40.76 26.17C40.63 25.77 40.41 25.4 40.13 25.09C39.85 24.77 39.5 24.52 39.12 24.34C38.73 24.17 38.31 24.07 37.89 24.07C36.45 24.03 35.03 23.64 33.77 22.94L33.64 22.87C33.18 22.63 32.66 22.51 32.13 22.53C31.61 22.55 31.1 22.7 30.65 22.97C30.19 23.25 29.82 23.64 29.56 24.1C29.3 24.56 29.16 25.09 29.16 25.62L29.16 28.29C29.16 28.4 29.13 28.51 29.07 28.6C29.01 28.68 28.92 28.75 28.82 28.79C28.76 28.82 28.69 28.83 28.62 28.83ZM26.94 23.96C27.08 24.98 27.47 25.95 28.08 26.77L28.08 25.62C28.08 24.9 28.26 24.2 28.61 23.58C28.96 22.96 29.46 22.44 30.07 22.07C30.68 21.69 31.37 21.48 32.08 21.46C32.8 21.43 33.5 21.59 34.14 21.91L34.28 21.99C35.39 22.61 36.63 22.95 37.9 22.99C38.91 23 39.88 23.38 40.63 24.06C41.38 24.74 41.85 25.66 41.97 26.67C42.82 25.28 43.2 23.67 43.06 22.06C42.96 21.66 42.74 21.3 42.43 21.04C42.34 20.97 42.27 20.87 42.24 20.75C42.21 20.64 42.22 20.52 42.26 20.42C42.31 20.34 42.33 20.26 42.33 20.17C42.34 20.09 42.32 20 42.29 19.92C42.16 19.73 41.98 19.59 41.76 19.53C41.69 19.51 41.62 19.47 41.57 19.43C41.51 19.38 41.46 19.32 41.43 19.26C40.9 18.25 40.11 16.73 35.6 15.83C34.04 15.51 32.8 15.65 31.92 16.24C31.38 16.6 30.99 17.14 30.82 17.76C30.81 17.84 30.78 17.91 30.73 17.97C30.69 18.03 30.63 18.08 30.57 18.12C30.5 18.16 30.43 18.19 30.35 18.2C30.28 18.2 30.2 18.2 30.13 18.18C29.85 18.06 29.55 18.01 29.24 18.03C28.94 18.05 28.64 18.14 28.38 18.3C27.42 18.95 27.27 20.59 27.27 20.61C27.26 20.69 27.23 20.78 27.19 20.85L27.14 20.92C27.35 21.17 27.45 21.5 27.41 21.83C27.39 21.95 27.34 22.06 27.26 22.15C27.19 22.25 27.09 22.32 26.98 22.37C26.95 22.4 26.93 22.44 26.92 22.48C27.06 22.64 27.14 22.84 27.17 23.05C27.19 23.37 27.11 23.69 26.94 23.96ZM26.51 21.4L26.49 21.41L26.51 21.4Z" fill="#67D7C1" fill-opacity="1.000000" fill-rule="nonzero"/>
		<path id="Vector" d="M35.01 37.62C32.87 37.57 31.43 36.04 30.03 34.57C29.88 34.41 29.73 34.25 29.58 34.1C28.58 33.02 28.04 31.59 28.08 30.12L28.08 28.13C28.08 27.99 28.14 27.85 28.24 27.75C28.34 27.65 28.48 27.59 28.62 27.59C28.77 27.59 28.91 27.65 29.01 27.75C29.11 27.85 29.17 27.99 29.17 28.13L29.17 30.16C29.14 31.34 29.57 32.48 30.36 33.35C30.51 33.5 30.67 33.66 30.82 33.82C32.11 35.2 33.34 36.5 35.01 36.54C36.64 36.5 37.87 35.2 39.17 33.82C39.32 33.66 39.47 33.5 39.63 33.35C40.41 32.49 40.84 31.36 40.83 30.2L40.83 28.13C40.83 27.99 40.88 27.85 40.98 27.75C41.09 27.65 41.22 27.59 41.37 27.59C41.51 27.59 41.65 27.65 41.75 27.75C41.85 27.85 41.91 27.99 41.91 28.13L41.91 30.16C41.94 31.62 41.4 33.03 40.41 34.1C40.26 34.25 40.11 34.41 39.96 34.57C38.56 36.04 37.12 37.57 35.01 37.62Z" fill="#67D7C1" fill-opacity="1.000000" fill-rule="nonzero"/>
		<path id="Vector" d="M28.38 30.89C27.28 30.89 26.38 29.81 26.38 28.48C26.38 28.12 26.44 27.76 26.58 27.43C26.72 27.09 26.93 26.79 27.19 26.54C27.29 26.45 27.44 26.4 27.58 26.41C27.72 26.42 27.86 26.48 27.95 26.59C28.05 26.69 28.1 26.83 28.09 26.98C28.08 27.12 28.02 27.25 27.91 27.35C27.76 27.5 27.65 27.67 27.57 27.87C27.49 28.06 27.46 28.27 27.46 28.48C27.46 29.25 27.97 29.88 28.49 29.8C28.63 29.77 28.77 29.81 28.89 29.89C29.01 29.97 29.09 30.1 29.11 30.24C29.13 30.38 29.1 30.53 29.02 30.64C28.93 30.76 28.81 30.84 28.67 30.86C28.57 30.88 28.48 30.89 28.38 30.89Z" fill="#67D7C1" fill-opacity="1.000000" fill-rule="nonzero"/>
		<path id="Vector" d="M41.61 30.89C41.51 30.89 41.42 30.88 41.32 30.86C41.18 30.84 41.06 30.76 40.98 30.64C40.9 30.53 40.86 30.38 40.89 30.24C40.91 30.1 40.99 29.97 41.1 29.89C41.22 29.81 41.36 29.77 41.5 29.8C42.02 29.88 42.53 29.25 42.53 28.48C42.53 28.27 42.5 28.06 42.42 27.87C42.35 27.67 42.23 27.5 42.08 27.35C42.03 27.3 41.99 27.25 41.96 27.18C41.92 27.12 41.91 27.05 41.9 26.98C41.89 26.83 41.94 26.69 42.04 26.59C42.13 26.48 42.27 26.42 42.41 26.41C42.56 26.4 42.7 26.45 42.8 26.54C43.06 26.79 43.27 27.09 43.41 27.43C43.55 27.76 43.61 28.12 43.61 28.48C43.61 29.81 42.71 30.89 41.61 30.89Z" fill="#67D7C1" fill-opacity="1.000000" fill-rule="nonzero"/>
		<path id="Vector" d="M32.67 43.16C32.65 43.16 32.63 43.16 32.62 43.16C32.54 43.15 32.46 43.12 32.39 43.08C32.32 43.04 32.26 42.98 32.21 42.91L29.76 39.09C29.7 39 29.67 38.89 29.67 38.78C29.68 38.67 29.71 38.56 29.78 38.48L30.7 37.23C30.78 37.11 30.9 37.04 31.04 37.01C31.17 36.99 31.32 37.02 31.43 37.09L35.3 39.67C35.36 39.71 35.41 39.77 35.46 39.83C35.5 39.9 35.52 39.97 35.53 40.05C35.54 40.13 35.53 40.21 35.51 40.28C35.48 40.36 35.44 40.42 35.39 40.48L33.06 42.98C33.01 43.04 32.95 43.08 32.88 43.11C32.81 43.14 32.74 43.16 32.67 43.16ZM30.87 38.81L32.74 41.74L34.17 40.21L31.26 38.28L30.87 38.81Z" fill="#67D7C1" fill-opacity="1.000000" fill-rule="nonzero"/>
		<path id="Vector" d="M37.32 43.16C37.25 43.16 37.17 43.14 37.11 43.11C37.04 43.08 36.98 43.04 36.93 42.98L34.6 40.48C34.55 40.42 34.51 40.36 34.48 40.28C34.46 40.21 34.45 40.13 34.46 40.05C34.47 39.97 34.49 39.9 34.53 39.83C34.57 39.76 34.63 39.71 34.69 39.66L38.56 37.09C38.67 37.02 38.82 36.99 38.95 37.01C39.09 37.03 39.21 37.11 39.29 37.22L40.21 38.47C40.28 38.56 40.31 38.67 40.32 38.78C40.32 38.88 40.29 38.99 40.23 39.08L37.78 42.91C37.73 42.98 37.67 43.04 37.6 43.08C37.53 43.12 37.45 43.15 37.37 43.16C37.35 43.16 37.34 43.16 37.32 43.16ZM35.82 40.21L37.24 41.74L39.12 38.81L38.73 38.28L35.82 40.21Z" fill="#67D7C1" fill-opacity="1.000000" fill-rule="nonzero"/>
		<path id="Vector" d="M48.17 53.64L21.28 53.64C20.75 53.64 20.24 53.43 19.86 53.06C19.49 52.68 19.28 52.17 19.28 51.64L19.28 46.82C19.27 45.3 19.76 43.82 20.66 42.59C21.56 41.37 22.83 40.47 24.29 40.03L30.16 38.31C30.29 38.27 30.44 38.29 30.57 38.35C30.69 38.42 30.79 38.54 30.83 38.68C30.87 38.82 30.85 38.96 30.78 39.09C30.71 39.21 30.6 39.31 30.46 39.35L24.6 41.06C23.37 41.44 22.29 42.2 21.53 43.24C20.76 44.28 20.35 45.53 20.36 46.82L20.36 51.64C20.36 51.89 20.46 52.12 20.63 52.29C20.8 52.47 21.03 52.56 21.28 52.56L48.17 52.56C48.42 52.56 48.65 52.47 48.82 52.29C48.99 52.12 49.09 51.89 49.09 51.64L49.09 46.28C49.1 44.99 48.69 43.73 47.92 42.7C47.15 41.66 46.07 40.9 44.84 40.52L39.66 39.38C39.52 39.35 39.4 39.27 39.32 39.15C39.24 39.03 39.22 38.88 39.25 38.74C39.28 38.6 39.36 38.48 39.48 38.4C39.6 38.32 39.75 38.3 39.89 38.33L45.12 39.47C46.58 39.91 47.86 40.81 48.77 42.04C49.68 43.26 50.18 44.75 50.17 46.28L50.17 51.64C50.17 52.17 49.96 52.68 49.59 53.06C49.21 53.43 48.7 53.64 48.17 53.64Z" fill="#67D7C1" fill-opacity="1.000000" fill-rule="nonzero"/>
		<path id="Vector" d="M35 40.65C34.89 40.65 34.78 40.62 34.7 40.56L30.83 37.99C30.75 37.94 30.68 37.86 30.64 37.76C30.6 37.67 30.58 37.56 30.6 37.46L30.95 35.19C30.96 35.12 30.99 35.05 31.02 34.99C31.06 34.93 31.11 34.88 31.17 34.83C31.22 34.79 31.29 34.76 31.36 34.74C31.43 34.73 31.5 34.72 31.57 34.73C31.64 34.75 31.71 34.77 31.77 34.81C31.83 34.85 31.89 34.89 31.93 34.95C31.97 35.01 32 35.08 32.01 35.15C32.03 35.22 32.03 35.29 32.02 35.36L31.72 37.29L35 39.46L38.27 37.28L37.97 35.35C37.96 35.28 37.96 35.21 37.97 35.14C37.99 35.07 38.02 35.01 38.06 34.95C38.1 34.89 38.16 34.84 38.22 34.8C38.28 34.77 38.35 34.74 38.42 34.73C38.49 34.72 38.56 34.72 38.63 34.74C38.7 34.76 38.76 34.79 38.82 34.83C38.88 34.87 38.93 34.93 38.97 34.99C39 35.05 39.03 35.12 39.04 35.19L39.39 37.46C39.41 37.56 39.39 37.66 39.35 37.76C39.31 37.85 39.24 37.93 39.16 37.99L35.29 40.56C35.2 40.62 35.1 40.65 35 40.65Z" fill="#67D7C1" fill-opacity="1.000000" fill-rule="nonzero"/>
		<path id="Vector" d="M46.23 48.6C46.19 48.6 46.15 48.6 46.11 48.59L45.23 48.39C45.16 48.38 45.1 48.35 45.04 48.31C44.98 48.27 44.93 48.21 44.89 48.15C44.85 48.09 44.82 48.03 44.81 47.95C44.8 47.88 44.8 47.81 44.81 47.74C44.83 47.67 44.86 47.6 44.9 47.55C44.94 47.49 45 47.44 45.06 47.4C45.12 47.36 45.19 47.34 45.26 47.33C45.33 47.32 45.4 47.32 45.47 47.34L45.82 47.42L46.21 45.71C46.27 45.45 46.29 45.19 46.25 44.92C46.2 44.66 46.11 44.41 45.97 44.18C45.83 43.96 45.65 43.76 45.43 43.6C45.22 43.45 44.97 43.34 44.71 43.28C44.45 43.22 44.18 43.22 43.92 43.26C43.66 43.31 43.41 43.41 43.19 43.55C42.96 43.7 42.77 43.88 42.62 44.1C42.47 44.32 42.36 44.57 42.31 44.83L41.92 46.53L42.28 46.61C42.42 46.64 42.54 46.73 42.62 46.85C42.69 46.97 42.72 47.12 42.69 47.26C42.65 47.4 42.57 47.52 42.45 47.6C42.33 47.67 42.18 47.7 42.04 47.67L41.16 47.47C41.09 47.45 41.02 47.42 40.96 47.38C40.91 47.34 40.86 47.29 40.82 47.23C40.78 47.17 40.76 47.1 40.74 47.03C40.73 46.96 40.73 46.89 40.75 46.82L41.25 44.59C41.34 44.19 41.51 43.82 41.74 43.49C41.98 43.16 42.27 42.88 42.62 42.66C42.96 42.45 43.34 42.3 43.74 42.23C44.14 42.16 44.55 42.17 44.94 42.26C45.34 42.35 45.71 42.52 46.04 42.75C46.37 42.99 46.65 43.28 46.87 43.62C47.08 43.97 47.23 44.35 47.3 44.75C47.37 45.15 47.35 45.55 47.27 45.95L46.76 48.18C46.73 48.3 46.67 48.41 46.57 48.48C46.48 48.56 46.36 48.6 46.23 48.6L46.23 48.6Z" fill="#67D7C1" fill-opacity="1.000000" fill-rule="nonzero"/>
		<path id="Vector" d="M24.79 44.18C24.67 44.18 24.55 44.14 24.45 44.06C24.36 43.98 24.29 43.88 24.26 43.76L23.6 40.77C23.59 40.7 23.59 40.63 23.6 40.56C23.61 40.49 23.64 40.42 23.67 40.36C23.71 40.3 23.76 40.25 23.82 40.21C23.88 40.17 23.94 40.14 24.01 40.13C24.08 40.11 24.15 40.11 24.22 40.12C24.29 40.13 24.36 40.16 24.42 40.2C24.48 40.24 24.53 40.29 24.57 40.34C24.61 40.4 24.64 40.47 24.66 40.54L25.32 43.52C25.35 43.66 25.32 43.81 25.25 43.93C25.17 44.05 25.05 44.14 24.91 44.17C24.87 44.17 24.83 44.18 24.79 44.18Z" fill="#67D7C1" fill-opacity="1.000000" fill-rule="nonzero"/>
		<path id="Vector" d="M44.85 43.34C44.81 43.34 44.77 43.33 44.73 43.32C44.66 43.31 44.6 43.28 44.54 43.24C44.48 43.2 44.43 43.15 44.39 43.09C44.36 43.03 44.33 42.96 44.32 42.89C44.3 42.82 44.31 42.75 44.32 42.68L44.9 40.04C44.93 39.9 45.02 39.77 45.14 39.7C45.26 39.62 45.4 39.59 45.54 39.62C45.68 39.65 45.81 39.74 45.88 39.86C45.96 39.98 45.99 40.13 45.96 40.27L45.38 42.91C45.35 43.03 45.28 43.14 45.19 43.22C45.09 43.29 44.97 43.34 44.85 43.34Z" fill="#67D7C1" fill-opacity="1.000000" fill-rule="nonzero"/>
		<path id="Vector" d="M25.57 47.98C25.07 47.98 24.58 47.84 24.17 47.56C23.75 47.28 23.43 46.89 23.24 46.43C23.05 45.97 23 45.46 23.09 44.97C23.19 44.48 23.43 44.03 23.78 43.68C24.14 43.32 24.59 43.08 25.08 42.99C25.57 42.89 26.07 42.94 26.53 43.13C27 43.32 27.39 43.64 27.67 44.06C27.94 44.47 28.09 44.96 28.09 45.46C28.09 46.13 27.83 46.77 27.35 47.24C26.88 47.72 26.24 47.98 25.57 47.98ZM25.57 44.02C25.28 44.02 25 44.1 24.77 44.26C24.53 44.42 24.35 44.65 24.24 44.91C24.13 45.17 24.1 45.46 24.15 45.74C24.21 46.02 24.35 46.28 24.55 46.48C24.75 46.68 25.01 46.82 25.29 46.88C25.57 46.93 25.86 46.9 26.12 46.79C26.38 46.68 26.61 46.5 26.77 46.26C26.93 46.02 27.01 45.75 27.01 45.46C27.01 45.08 26.86 44.71 26.59 44.44C26.32 44.17 25.95 44.02 25.57 44.02Z" fill="#67D7C1" fill-opacity="1.000000" fill-rule="nonzero"/>
		<path id="Vector" d="M26.39 45.46C26.39 45.91 26.02 46.28 25.57 46.28C25.12 46.28 24.75 45.91 24.75 45.46C24.75 45.01 25.12 44.64 25.57 44.64C26.02 44.64 26.39 45.01 26.39 45.46Z" fill="#67D7C1" fill-opacity="1.000000" fill-rule="evenodd"/>
		<path id="Vector" d="M25.57 46.55C25.35 46.55 25.14 46.48 24.96 46.36C24.79 46.25 24.65 46.08 24.56 45.88C24.48 45.68 24.46 45.46 24.5 45.25C24.54 45.04 24.65 44.84 24.8 44.69C24.95 44.54 25.15 44.44 25.36 44.39C25.57 44.35 25.79 44.37 25.98 44.46C26.18 44.54 26.35 44.68 26.47 44.86C26.59 45.04 26.66 45.25 26.66 45.46C26.66 45.75 26.54 46.03 26.34 46.23C26.13 46.43 25.86 46.55 25.57 46.55ZM25.57 44.91C25.46 44.91 25.36 44.95 25.27 45.01C25.17 45.07 25.1 45.15 25.06 45.25C25.02 45.35 25.01 45.46 25.03 45.57C25.05 45.67 25.11 45.77 25.18 45.85C25.26 45.92 25.36 45.98 25.46 46C25.57 46.02 25.68 46.01 25.78 45.97C25.88 45.92 25.96 45.85 26.02 45.76C26.08 45.67 26.12 45.57 26.12 45.46C26.12 45.32 26.06 45.18 25.96 45.07C25.85 44.97 25.71 44.91 25.57 44.91Z" fill="#67D7C1" fill-opacity="1.000000" fill-rule="nonzero"/>
	</g>
</svg>
