<svg width="68.000000" height="68.000000" viewBox="0 0 68 68" fill="none" xmlns="http://www.w3.org/2000/svg" xmlns:xlink="http://www.w3.org/1999/xlink">
	<desc>
			Created with Pixso.
	</desc>
	<defs>
		<clipPath id="clip3_100">
			<rect id="operating-room 1" width="34.000000" height="34.000000" transform="translate(17.000000 17.000000)" fill="white" fill-opacity="0"/>
		</clipPath>
	</defs>
	<rect id="фрейм 6" width="68.000000" height="68.000000" fill="#FFFFFF" fill-opacity="0"/>
	<circle id="Ellipse 4" cx="34.000000" cy="34.000000" r="34.000000" fill="#F3FCFF" fill-opacity="1.000000"/>
	<rect id="operating-room 1" width="34.000000" height="34.000000" transform="translate(17.000000 17.000000)" fill="#FFFFFF" fill-opacity="0"/>
	<g clip-path="url(#clip3_100)">
		<path id="Vector" d="M19.77 21.17C18.02 23.26 17.61 26.18 18.7 28.67L18.56 28.82C18.17 29.21 18.17 29.84 18.56 30.22C18.75 30.42 19.01 30.52 19.26 30.52C19.52 30.52 20.62 29.58 20.62 29.58C20.62 29.58 29.09 21.11 29.09 21.11L29.74 20.46C30.12 20.07 30.12 19.44 29.74 19.05C29.35 18.66 28.72 18.66 28.33 19.05L28.19 19.19C25.91 18.2 23.28 18.45 21.25 19.83L18.7 17.29C18.31 16.9 17.68 16.9 17.29 17.29C16.9 17.68 16.9 18.31 17.29 18.7L19.77 21.17Z" fill="#67D7C1" fill-opacity="1.000000" fill-rule="nonzero"/>
		<path id="Vector" d="M39.51 45.09C40.06 45.09 40.5 44.64 40.5 44.09L40.5 42.1L27.49 42.1L27.49 44.09C27.49 44.64 27.93 45.09 28.48 45.09L39.51 45.09Z" fill="#67D7C1" fill-opacity="1.000000" fill-rule="nonzero"/>
		<path id="Vector" d="M50 36.12L45.08 36.12C44.54 36.12 44.09 36.57 44.09 37.12C44.09 36.57 43.64 36.12 43.09 36.12L26.76 36.12C26.21 36.12 25.76 36.57 25.76 37.12C25.76 36.57 25.31 36.12 24.77 36.12L17.99 36.12C17.44 36.12 17 36.57 17 37.12L17 39.11C17 39.66 17.44 40.11 17.99 40.11L50 40.11C50.55 40.11 50.99 39.66 50.99 39.11L50.99 37.12C50.99 36.57 50.55 36.12 50 36.12Z" fill="#67D7C1" fill-opacity="1.000000" fill-rule="nonzero"/>
		<path id="Vector" d="M42.13 49L37.65 49L37.65 47.08L30.34 47.08L30.34 49L25.4 49C24.85 49 24.4 49.45 24.4 50C24.4 50.55 24.85 51 25.4 51L42.13 51C42.68 51 43.12 50.55 43.12 50C43.12 49.45 42.68 49 42.13 49Z" fill="#67D7C1" fill-opacity="1.000000" fill-rule="nonzero"/>
	</g>
</svg>
