<svg width="68.000000" height="68.000000" viewBox="0 0 68 68" fill="none" xmlns="http://www.w3.org/2000/svg" xmlns:xlink="http://www.w3.org/1999/xlink">
	<desc>
			Created with Pixso.
	</desc>
	<defs>
		<clipPath id="clip3_75">
			<rect id="24 Hours service 1" width="30.000000" height="30.000000" transform="translate(20.000000 19.000000)" fill="white" fill-opacity="0"/>
		</clipPath>
	</defs>
	<rect id="фрейм 2" width="68.000000" height="68.000000" fill="#FFFFFF" fill-opacity="0"/>
	<circle id="Ellipse 1" cx="34.000000" cy="34.000000" r="34.000000" fill="#F3FCFF" fill-opacity="1.000000"/>
	<rect id="24 Hours service 1" width="30.000000" height="30.000000" transform="translate(20.000000 19.000000)" fill="#FFFFFF" fill-opacity="0"/>
	<g clip-path="url(#clip3_75)">
		<path id="Vector" d="M46.6 25.32L46.13 25.32L46.13 24.74C46.13 23.77 45.34 22.98 44.37 22.98C43.4 22.98 42.61 23.77 42.61 24.74L42.61 25.32L41.44 25.32L41.44 21.92C41.44 20.96 40.65 20.17 39.68 20.17L37.6 20.17C37.28 20.17 37.02 20.43 37.02 20.75C37.02 21.08 37.28 21.34 37.6 21.34L39.68 21.34C40.01 21.34 40.27 21.6 40.27 21.92L40.27 25.32L39.1 25.32L39.1 23.1C39.1 22.77 38.83 22.51 38.51 22.51L31.48 22.51C31.16 22.51 30.89 22.77 30.89 23.1L30.89 25.32L29.72 25.32L29.72 21.92C29.72 21.6 29.98 21.34 30.31 21.34L32.33 21.34C32.65 21.34 32.92 21.08 32.92 20.75C32.92 20.43 32.65 20.17 32.33 20.17L30.31 20.17C29.34 20.17 28.55 20.96 28.55 21.92L28.55 25.32L27.38 25.32L27.38 24.74C27.38 23.77 26.59 22.98 25.62 22.98C24.65 22.98 23.86 23.77 23.86 24.74L23.86 25.32L23.39 25.32C21.52 25.32 20 26.85 20 28.72L20 44.43C20 46.3 21.52 47.82 23.39 47.82L46.6 47.82C48.47 47.82 50 46.3 50 44.43L50 28.72C50 26.85 48.47 25.32 46.6 25.32ZM43.78 24.74C43.78 24.41 44.05 24.15 44.37 24.15C44.69 24.15 44.96 24.41 44.96 24.74L44.96 25.32L43.78 25.32L43.78 24.74ZM32.07 23.68L37.92 23.68L37.92 25.32L32.07 25.32L32.07 23.68ZM25.03 24.74C25.03 24.41 25.3 24.15 25.62 24.15C25.94 24.15 26.21 24.41 26.21 24.74L26.21 25.32L25.03 25.32L25.03 24.74ZM48.82 44.43C48.82 45.65 47.82 46.65 46.6 46.65L23.39 46.65C22.17 46.65 21.17 45.65 21.17 44.43L21.17 28.72C21.17 27.49 22.17 26.5 23.39 26.5L46.6 26.5C47.82 26.5 48.82 27.49 48.82 28.72L48.82 44.43Z" fill="#67D7C1" fill-opacity="1.000000" fill-rule="nonzero"/>
		<path id="Vector" d="M35 30.44C31.61 30.44 28.86 33.19 28.86 36.57C28.86 39.96 31.61 42.71 35 42.71C38.38 42.71 41.13 39.96 41.13 36.57C41.13 33.19 38.38 30.44 35 30.44ZM35 41.54C32.26 41.54 30.03 39.31 30.03 36.57C30.03 33.84 32.26 31.61 35 31.61C37.73 31.61 39.96 33.84 39.96 36.57C39.96 39.31 37.73 41.54 35 41.54Z" fill="#67D7C1" fill-opacity="1.000000" fill-rule="nonzero"/>
		<path id="Vector" d="M37.16 34.82L36.76 34.82L36.76 34.41C36.76 33.8 36.26 33.3 35.65 33.3L34.35 33.3C33.74 33.3 33.24 33.8 33.24 34.41L33.24 34.82L32.84 34.82C32.23 34.82 31.73 35.31 31.73 35.92L31.73 37.22C31.73 37.83 32.23 38.33 32.84 38.33L33.24 38.33L33.24 38.73C33.24 39.34 33.74 39.84 34.35 39.84L35.65 39.84C36.26 39.84 36.76 39.34 36.76 38.73L36.76 38.33L37.16 38.33C37.77 38.33 38.27 37.83 38.27 37.22L38.27 35.92C38.27 35.31 37.77 34.82 37.16 34.82ZM37.1 37.16L36.17 37.16C35.85 37.16 35.59 37.42 35.59 37.75L35.59 38.67L34.42 38.67L34.42 37.75C34.42 37.42 34.15 37.16 33.83 37.16L32.91 37.16L32.91 35.99L33.83 35.99C34.15 35.99 34.42 35.72 34.42 35.4L34.42 34.48L35.59 34.48L35.59 35.4C35.59 35.72 35.85 35.99 36.17 35.99L37.1 35.99L37.1 37.16Z" fill="#67D7C1" fill-opacity="1.000000" fill-rule="nonzero"/>
		<path id="Vector" d="M35.55 20.75C35.55 21.08 35.29 21.34 34.97 21.34C34.64 21.34 34.38 21.08 34.38 20.75C34.38 20.43 34.64 20.17 34.97 20.17C35.29 20.17 35.55 20.43 35.55 20.75Z" fill="#67D7C1" fill-opacity="1.000000" fill-rule="evenodd"/>
	</g>
</svg>
